<svg xmlns="http://www.w3.org/2000/svg" xmlns:xlink="http://www.w3.org/1999/xlink" width="20" height="20" viewBox="0 0 20 20"><defs><style>.a{fill:#72778d;}.b{clip-path:url(#a);}</style><clipPath id="a"><rect class="a" width="20" height="20" transform="translate(1189 226)"/></clipPath></defs><g class="b" transform="translate(-1189 -226)"><g transform="translate(1190.878 226)"><path class="a" d="M8.8,5.8a.468.468,0,0,0-.468.468v8.852a.468.468,0,0,0,.937,0V6.265A.468.468,0,0,0,8.8,5.8Zm0,0" transform="translate(2.084 1.449)"/><path class="a" d="M4.38,5.8a.468.468,0,0,0-.468.468v8.852a.468.468,0,0,0,.937,0V6.265A.468.468,0,0,0,4.38,5.8Zm0,0" transform="translate(0.978 1.449)"/><path class="a" d="M1.33,5.954v11.54a2.584,2.584,0,0,0,.687,1.782A2.307,2.307,0,0,0,3.691,20h8.862a2.306,2.306,0,0,0,1.674-.724,2.584,2.584,0,0,0,.687-1.782V5.954a1.789,1.789,0,0,0-.459-3.519h-2.4V1.85A1.84,1.84,0,0,0,10.2,0H6.042A1.84,1.84,0,0,0,4.187,1.85v.585h-2.4A1.789,1.789,0,0,0,1.33,5.954ZM12.553,19.063H3.691a1.483,1.483,0,0,1-1.424-1.569V6h11.71v11.5A1.483,1.483,0,0,1,12.553,19.063ZM5.124,1.85A.9.9,0,0,1,6.042.937H10.2a.9.9,0,0,1,.918.913v.585h-6ZM1.789,3.372H14.454a.843.843,0,1,1,0,1.686H1.789a.843.843,0,0,1,0-1.686Zm0,0" transform="translate(0 0)"/><path class="a" d="M6.591,5.8a.468.468,0,0,0-.468.468v8.852a.468.468,0,0,0,.937,0V6.265A.468.468,0,0,0,6.591,5.8Zm0,0" transform="translate(1.531 1.449)"/></g></g></svg>