<svg xmlns="http://www.w3.org/2000/svg" xmlns:xlink="http://www.w3.org/1999/xlink" width="20" height="20" viewBox="0 0 20 20"><defs><style>.a{fill:#72778d;}.b{clip-path:url(#a);}</style><clipPath id="a"><rect class="a" width="20" height="20" transform="translate(1291 226)"/></clipPath></defs><g class="b" transform="translate(-1291 -226)"><g transform="translate(1291 226)"><path class="a" d="M15.833,9.348a.833.833,0,0,0-.833.833v6.667a.834.834,0,0,1-.833.833H2.5a.834.834,0,0,1-.833-.833V5.182A.834.834,0,0,1,2.5,4.348H9.167a.833.833,0,0,0,0-1.667H2.5A2.5,2.5,0,0,0,0,5.182V16.848a2.5,2.5,0,0,0,2.5,2.5H14.167a2.5,2.5,0,0,0,2.5-2.5V10.182A.833.833,0,0,0,15.833,9.348Zm0,0" transform="translate(0 0.651)"/><path class="a" d="M6.393,8.727a.422.422,0,0,0-.114.212L5.69,11.886a.416.416,0,0,0,.409.5.4.4,0,0,0,.082-.008l2.946-.589a.415.415,0,0,0,.213-.114l6.593-6.593L12.987,2.133Zm0,0" transform="translate(1.42 0.514)"/><path class="a" d="M16.332.625a2.085,2.085,0,0,0-2.946,0L12.233,1.778l2.946,2.946,1.153-1.153a2.083,2.083,0,0,0,0-2.946Zm0,0" transform="translate(3.058 -0.016)"/></g></g></svg>